<?xml version="1.0" encoding="UTF-8"?>
<svg width="165px" height="30px" viewBox="0 0 165 30" version="1.1" xmlns="http://www.w3.org/2000/svg" xmlns:xlink="http://www.w3.org/1999/xlink">
    <!-- Generator: Sketch 51.3 (57544) - http://www.bohemiancoding.com/sketch -->
    <title>ck-btn-std</title>
    <desc>Created with Sketch.</desc>
    <defs></defs>
    <g id="ck-btn-std" stroke="none" stroke-width="1" fill="none" fill-rule="evenodd">
        <rect id="Rectangle-3-Copy" stroke="#1072BC" fill="#3D9CE5" fill-rule="nonzero" x="0.5" y="0.5" width="164" height="29" rx="4"></rect>
        <path d="M118.5,0.5 L118.5,29.5 L161,29.5 C162.932997,29.5 164.5,27.9329966 164.5,26 L164.5,4 C164.5,2.06700338 162.932997,0.5 161,0.5 L118.5,0.5 Z" id="Rectangle-4-Copy" stroke="#1072BC" fill="#1E83D1" fill-rule="nonzero"></path>
        <g id="Group" transform="translate(7.000000, 5.000000)" fill="#FFFFFF">
            <path d="M8.47651359,9.22598052 L8.47651359,4.84840901 L12.7654226,4.84840901 C12.7654226,7.2661059 10.8451248,9.22598052 8.47651359,9.22598052 L8.47651359,9.22598052 Z M8.47651359,14.3128813 L8.47651359,9.9353098 C10.8451248,9.9353098 12.7654226,11.8951844 12.7654226,14.3128813 L8.47651359,14.3128813 Z M7.78155093,9.22598052 L3.49264192,9.22598052 C3.49264192,6.80840414 5.41282161,4.84840901 7.78155093,4.84840901 L7.78155093,9.22598052 Z M7.78155093,14.3128813 C5.41282161,14.3128813 3.49264192,12.3530067 3.49264192,9.9353098 L7.78155093,9.9353098 L7.78155093,14.3128813 Z M14.7775792,3.91794157 L8.12903226,0 L1.48048534,3.91794157 C0.56437674,4.4577115 0,5.45542422 0,6.53520511 L0,12.6260852 C0,13.7058661 0.56437674,14.7035788 1.48048534,15.2434693 L8.12903226,19.1612903 L14.7775792,15.2434693 C15.6936878,14.7035788 16.2580645,13.7058661 16.2580645,12.6260852 L16.2580645,6.53520511 C16.2580645,5.45542422 15.6936878,4.4577115 14.7775792,3.91794157 L14.7775792,3.91794157 Z" id="Fill-1"></path>
        </g>
        <path d="M34.076,20.186 C31.0225,20.186 28.651,18.016 28.651,14.8385 C28.651,11.6455 31.0225,9.491 34.076,9.491 C36.153,9.491 37.455,10.5605 38.2145,11.8005 L36.68,12.6065 C36.184,11.7385 35.1765,11.103 34.076,11.103 C32.03,11.103 30.511,12.653 30.511,14.8385 C30.511,16.993 32.03,18.574 34.076,18.574 C35.1765,18.574 36.184,17.923 36.68,17.0705 L38.23,17.8455 C37.4395,19.0855 36.153,20.186 34.076,20.186 Z M47.685,20 L45.577,20 L43.2985,16.1405 L41.485,16.1405 L41.485,20 L39.6715,20 L39.6715,9.6615 L44.213,9.6615 C46.259,9.6615 47.6075,10.979 47.6075,12.901 C47.6075,14.73 46.3985,15.7375 45.143,15.939 L47.685,20 Z M43.9805,14.544 C45.0035,14.544 45.7475,13.893 45.7475,12.8855 C45.7475,11.8935 45.0035,11.258 43.9805,11.258 L41.485,11.258 L41.485,14.544 L43.9805,14.544 Z M56.5045,20 L49.421,20 L49.421,9.6615 L56.5045,9.6615 L56.5045,11.258 L51.2345,11.258 L51.2345,13.924 L56.396,13.924 L56.396,15.5205 L51.2345,15.5205 L51.2345,18.4035 L56.5045,18.4035 L56.5045,20 Z M62.224,20 L58.3645,20 L58.3645,9.6615 L62.2085,9.6615 C65.448,9.6615 67.618,11.8005 67.618,14.823 C67.618,17.8765 65.448,20 62.224,20 Z M62.2085,18.4035 C64.456,18.4035 65.758,16.7915 65.758,14.823 C65.758,12.839 64.518,11.258 62.224,11.258 L60.178,11.258 L60.178,18.4035 L62.2085,18.4035 Z M71.183,20 L69.3695,20 L69.3695,9.6615 L71.183,9.6615 L71.183,20 Z M77.662,20 L75.8485,20 L75.8485,11.258 L72.7175,11.258 L72.7175,9.6615 L80.793,9.6615 L80.793,11.258 L77.662,11.258 L77.662,20 Z M94.7585,20 L92.511,20 L89.0545,15.629 L88.14,16.6985 L88.14,20 L86.3265,20 L86.3265,9.6615 L88.14,9.6615 L88.14,14.575 L92.1855,9.6615 L94.433,9.6615 L90.2325,14.5285 L94.7585,20 Z M103.0355,20 L95.952,20 L95.952,9.6615 L103.0355,9.6615 L103.0355,11.258 L97.7655,11.258 L97.7655,13.924 L102.927,13.924 L102.927,15.5205 L97.7655,15.5205 L97.7655,18.4035 L103.0355,18.4035 L103.0355,20 Z M109.654,20 L107.8405,20 L107.8405,15.7065 L103.826,9.6615 L105.903,9.6615 L108.7395,14.079 L111.576,9.6615 L113.653,9.6615 L109.654,15.7065 L109.654,20 Z" id="CREDIT-KEY-Copy" fill="#FFFFFF"></path>
        <path d="M135.76875,13 L131.55625,13 L131.55625,4.6625 L135.65625,4.6625 C137.19375,4.6625 138.03125,5.6125 138.03125,6.7875 C138.03125,7.825 137.35625,8.5375 136.58125,8.7 C137.48125,8.8375 138.19375,9.725 138.19375,10.7375 C138.19375,12.0375 137.34375,13 135.76875,13 Z M135.36875,8.1 C136.10625,8.1 136.53125,7.6625 136.53125,7.025 C136.53125,6.4125 136.10625,5.95 135.36875,5.95 L133.01875,5.95 L133.01875,8.1 L135.36875,8.1 Z M135.43125,11.7125 C136.21875,11.7125 136.69375,11.275 136.69375,10.55 C136.69375,9.925 136.25625,9.3875 135.43125,9.3875 L133.01875,9.3875 L133.01875,11.7125 L135.43125,11.7125 Z M145.44375,13 L139.40625,13 L139.40625,11.8375 C142.64375,9.3875 143.91875,8.3125 143.91875,7.1 C143.91875,6.225 143.15625,5.8375 142.39375,5.8375 C141.41875,5.8375 140.68125,6.225 140.14375,6.825 L139.29375,5.875 C140.03125,4.975 141.20625,4.5375 142.38125,4.5375 C143.99375,4.5375 145.39375,5.4375 145.39375,7.1 C145.39375,8.65 143.98125,10.025 141.75625,11.7125 L145.44375,11.7125 L145.44375,13 Z M151.31875,13 L147.10625,13 L147.10625,4.6625 L151.20625,4.6625 C152.74375,4.6625 153.58125,5.6125 153.58125,6.7875 C153.58125,7.825 152.90625,8.5375 152.13125,8.7 C153.03125,8.8375 153.74375,9.725 153.74375,10.7375 C153.74375,12.0375 152.89375,13 151.31875,13 Z M150.91875,8.1 C151.65625,8.1 152.08125,7.6625 152.08125,7.025 C152.08125,6.4125 151.65625,5.95 150.91875,5.95 L148.56875,5.95 L148.56875,8.1 L150.91875,8.1 Z M150.98125,11.7125 C151.76875,11.7125 152.24375,11.275 152.24375,10.55 C152.24375,9.925 151.80625,9.3875 150.98125,9.3875 L148.56875,9.3875 L148.56875,11.7125 L150.98125,11.7125 Z M130.35625,25.15 C127.89375,25.15 125.98125,23.4 125.98125,20.8375 C125.98125,18.2625 127.89375,16.525 130.35625,16.525 C132.03125,16.525 133.08125,17.3875 133.69375,18.3875 L132.45625,19.0375 C132.05625,18.3375 131.24375,17.825 130.35625,17.825 C128.70625,17.825 127.48125,19.075 127.48125,20.8375 C127.48125,22.575 128.70625,23.85 130.35625,23.85 C131.24375,23.85 132.05625,23.325 132.45625,22.6375 L133.70625,23.2625 C133.06875,24.2625 132.03125,25.15 130.35625,25.15 Z M136.14375,25 L134.83125,25 L134.83125,18.9625 L136.14375,18.9625 L136.14375,19.8375 C136.60625,19.2625 137.33125,18.8125 138.10625,18.8125 L138.10625,20.1125 C137.99375,20.0875 137.86875,20.075 137.70625,20.075 C137.14375,20.075 136.40625,20.45 136.14375,20.8875 L136.14375,25 Z M141.96875,25.15 C140.14375,25.15 138.80625,23.8875 138.80625,21.975 C138.80625,20.225 140.08125,18.8125 141.86875,18.8125 C143.68125,18.8125 144.83125,20.1875 144.83125,22.0875 L144.83125,22.4125 L140.18125,22.4125 C140.28125,23.3125 140.95625,24.075 142.09375,24.075 C142.69375,24.075 143.38125,23.8375 143.81875,23.4 L144.41875,24.2625 C143.80625,24.8375 142.91875,25.15 141.96875,25.15 Z M143.56875,21.475 C143.53125,20.7625 143.04375,19.8875 141.85625,19.8875 C140.74375,19.8875 140.21875,20.75 140.16875,21.475 L143.56875,21.475 Z M151.69375,25 L150.38125,25 L150.38125,24.175 C149.91875,24.775 149.23125,25.15 148.44375,25.15 C146.90625,25.15 145.76875,23.975 145.76875,21.975 C145.76875,20.025 146.89375,18.8125 148.44375,18.8125 C149.20625,18.8125 149.90625,19.15 150.38125,19.8 L150.38125,16.6625 L151.69375,16.6625 L151.69375,25 Z M148.83125,23.9875 C149.44375,23.9875 150.09375,23.625 150.38125,23.175 L150.38125,20.7875 C150.09375,20.3375 149.44375,19.975 148.83125,19.975 C147.78125,19.975 147.11875,20.8125 147.11875,21.975 C147.11875,23.15 147.78125,23.9875 148.83125,23.9875 Z M154.05625,18.225 C153.60625,18.225 153.24375,17.8625 153.24375,17.4125 C153.24375,16.9625 153.60625,16.6 154.05625,16.6 C154.50625,16.6 154.86875,16.9625 154.86875,17.4125 C154.86875,17.8625 154.50625,18.225 154.05625,18.225 Z M154.70625,25 L153.39375,25 L153.39375,18.9625 L154.70625,18.9625 L154.70625,25 Z M158.23125,25.15 C157.20625,25.15 156.68125,24.6 156.68125,23.5875 L156.68125,20.1 L155.68125,20.1 L155.68125,18.9625 L156.68125,18.9625 L156.68125,17.3125 L157.99375,17.3125 L157.99375,18.9625 L159.21875,18.9625 L159.21875,20.1 L157.99375,20.1 L157.99375,23.2625 C157.99375,23.675 158.19375,23.9875 158.56875,23.9875 C158.81875,23.9875 159.04375,23.875 159.14375,23.7625 L159.45625,24.7625 C159.21875,24.975 158.83125,25.15 158.23125,25.15 Z" id="B2B-Credit" fill="#FFFFFF"></path>
    </g>
</svg>