<?xml version="1.0" encoding="UTF-8"?>
<svg width="75px" height="50px" viewBox="0 0 75 50" version="1.1" xmlns="http://www.w3.org/2000/svg" xmlns:xlink="http://www.w3.org/1999/xlink">
    <!-- Generator: Sketch 51.3 (57544) - http://www.bohemiancoding.com/sketch -->
    <title>ck-sm-btn copy 2</title>
    <desc>Created with Sketch.</desc>
    <defs></defs>
    <g id="ck-sm-btn-copy-2" stroke="none" stroke-width="1" fill="none" fill-rule="evenodd">
        <rect id="Rectangle-3-Copy" stroke="#1072BC" fill="#3D9CE5" fill-rule="nonzero" x="0.5" y="0.5" width="74" height="49" rx="4"></rect>
        <path d="M0.5,36.5 L0.5,45 C0.5,47.4852814 2.51471863,49.5 5,49.5 L71,49.5 C72.9329966,49.5 74.5,47.9329966 74.5,46 L74.5,36.5 L0.5,36.5 Z" id="Rectangle-4-Copy" stroke="#1072BC" fill="#1E83D1" fill-rule="nonzero"></path>
        <path d="M37.6356546,10.2223585 L37.6356546,6.7954717 L40.9931339,6.7954717 C40.9931339,8.68811321 39.4898705,10.2223585 37.6356546,10.2223585 L37.6356546,10.2223585 Z M37.6356546,14.2045283 L37.6356546,10.7776415 C39.4898705,10.7776415 40.9931339,12.3118868 40.9931339,14.2045283 L37.6356546,14.2045283 Z M37.0916182,10.2223585 L33.7341389,10.2223585 C33.7341389,8.32981132 35.2373098,6.7954717 37.0916182,6.7954717 L37.0916182,10.2223585 Z M37.0916182,14.2045283 C35.2373098,14.2045283 33.7341389,12.670283 33.7341389,10.7776415 L37.0916182,10.7776415 L37.0916182,14.2045283 Z M42.5683069,6.06707547 L37.3636364,3 L32.1589658,6.06707547 C31.4418101,6.48962264 31,7.27066038 31,8.1159434 L31,12.8840566 C31,13.7293396 31.4418101,14.5103774 32.1589658,14.9330189 L37.3636364,18 L42.5683069,14.9330189 C43.2854627,14.5103774 43.7272727,13.7293396 43.7272727,12.8840566 L43.7272727,8.1159434 C43.7272727,7.27066038 43.2854627,6.48962264 42.5683069,6.06707547 L42.5683069,6.06707547 Z" id="Fill-1" fill="#FFFFFF"></path>
        <path d="M7.096,31.156 C4.535,31.156 2.546,29.336 2.546,26.671 C2.546,23.993 4.535,22.186 7.096,22.186 C8.838,22.186 9.93,23.083 10.567,24.123 L9.28,24.799 C8.864,24.071 8.019,23.538 7.096,23.538 C5.38,23.538 4.106,24.838 4.106,26.671 C4.106,28.478 5.38,29.804 7.096,29.804 C8.019,29.804 8.864,29.258 9.28,28.543 L10.58,29.193 C9.917,30.233 8.838,31.156 7.096,31.156 Z M18.51,31 L16.742,31 L14.831,27.763 L13.31,27.763 L13.31,31 L11.789,31 L11.789,22.329 L15.598,22.329 C17.314,22.329 18.445,23.434 18.445,25.046 C18.445,26.58 17.431,27.425 16.378,27.594 L18.51,31 Z M15.403,26.424 C16.261,26.424 16.885,25.878 16.885,25.033 C16.885,24.201 16.261,23.668 15.403,23.668 L13.31,23.668 L13.31,26.424 L15.403,26.424 Z M25.907,31 L19.966,31 L19.966,22.329 L25.907,22.329 L25.907,23.668 L21.487,23.668 L21.487,25.904 L25.816,25.904 L25.816,27.243 L21.487,27.243 L21.487,29.661 L25.907,29.661 L25.907,31 Z M30.704,31 L27.467,31 L27.467,22.329 L30.691,22.329 C33.408,22.329 35.228,24.123 35.228,26.658 C35.228,29.219 33.408,31 30.704,31 Z M30.691,29.661 C32.576,29.661 33.668,28.309 33.668,26.658 C33.668,24.994 32.628,23.668 30.704,23.668 L28.988,23.668 L28.988,29.661 L30.691,29.661 Z M38.218,31 L36.697,31 L36.697,22.329 L38.218,22.329 L38.218,31 Z M43.652,31 L42.131,31 L42.131,23.668 L39.505,23.668 L39.505,22.329 L46.278,22.329 L46.278,23.668 L43.652,23.668 L43.652,31 Z M57.991,31 L56.106,31 L53.207,27.334 L52.44,28.231 L52.44,31 L50.919,31 L50.919,22.329 L52.44,22.329 L52.44,26.45 L55.833,22.329 L57.718,22.329 L54.195,26.411 L57.991,31 Z M64.933,31 L58.992,31 L58.992,22.329 L64.933,22.329 L64.933,23.668 L60.513,23.668 L60.513,25.904 L64.842,25.904 L64.842,27.243 L60.513,27.243 L60.513,29.661 L64.933,29.661 L64.933,31 Z M70.484,31 L68.963,31 L68.963,27.399 L65.596,22.329 L67.338,22.329 L69.717,26.034 L72.096,22.329 L73.838,22.329 L70.484,27.399 L70.484,31 Z" id="CREDIT-KEY" fill="#FFFFFF"></path>
        <path d="M13.1,47 L8.8875,47 L8.8875,38.6625 L12.9875,38.6625 C14.525,38.6625 15.3625,39.6125 15.3625,40.7875 C15.3625,41.825 14.6875,42.5375 13.9125,42.7 C14.8125,42.8375 15.525,43.725 15.525,44.7375 C15.525,46.0375 14.675,47 13.1,47 Z M12.7,42.1 C13.4375,42.1 13.8625,41.6625 13.8625,41.025 C13.8625,40.4125 13.4375,39.95 12.7,39.95 L10.35,39.95 L10.35,42.1 L12.7,42.1 Z M12.7625,45.7125 C13.55,45.7125 14.025,45.275 14.025,44.55 C14.025,43.925 13.5875,43.3875 12.7625,43.3875 L10.35,43.3875 L10.35,45.7125 L12.7625,45.7125 Z M22.775,47 L16.7375,47 L16.7375,45.8375 C19.975,43.3875 21.25,42.3125 21.25,41.1 C21.25,40.225 20.4875,39.8375 19.725,39.8375 C18.75,39.8375 18.0125,40.225 17.475,40.825 L16.625,39.875 C17.3625,38.975 18.5375,38.5375 19.7125,38.5375 C21.325,38.5375 22.725,39.4375 22.725,41.1 C22.725,42.65 21.3125,44.025 19.0875,45.7125 L22.775,45.7125 L22.775,47 Z M28.65,47 L24.4375,47 L24.4375,38.6625 L28.5375,38.6625 C30.075,38.6625 30.9125,39.6125 30.9125,40.7875 C30.9125,41.825 30.2375,42.5375 29.4625,42.7 C30.3625,42.8375 31.075,43.725 31.075,44.7375 C31.075,46.0375 30.225,47 28.65,47 Z M28.25,42.1 C28.9875,42.1 29.4125,41.6625 29.4125,41.025 C29.4125,40.4125 28.9875,39.95 28.25,39.95 L25.9,39.95 L25.9,42.1 L28.25,42.1 Z M28.3125,45.7125 C29.1,45.7125 29.575,45.275 29.575,44.55 C29.575,43.925 29.1375,43.3875 28.3125,43.3875 L25.9,43.3875 L25.9,45.7125 L28.3125,45.7125 Z M39.7875,47.15 C37.325,47.15 35.4125,45.4 35.4125,42.8375 C35.4125,40.2625 37.325,38.525 39.7875,38.525 C41.4625,38.525 42.5125,39.3875 43.125,40.3875 L41.8875,41.0375 C41.4875,40.3375 40.675,39.825 39.7875,39.825 C38.1375,39.825 36.9125,41.075 36.9125,42.8375 C36.9125,44.575 38.1375,45.85 39.7875,45.85 C40.675,45.85 41.4875,45.325 41.8875,44.6375 L43.1375,45.2625 C42.5,46.2625 41.4625,47.15 39.7875,47.15 Z M45.575,47 L44.2625,47 L44.2625,40.9625 L45.575,40.9625 L45.575,41.8375 C46.0375,41.2625 46.7625,40.8125 47.5375,40.8125 L47.5375,42.1125 C47.425,42.0875 47.3,42.075 47.1375,42.075 C46.575,42.075 45.8375,42.45 45.575,42.8875 L45.575,47 Z M51.4,47.15 C49.575,47.15 48.2375,45.8875 48.2375,43.975 C48.2375,42.225 49.5125,40.8125 51.3,40.8125 C53.1125,40.8125 54.2625,42.1875 54.2625,44.0875 L54.2625,44.4125 L49.6125,44.4125 C49.7125,45.3125 50.3875,46.075 51.525,46.075 C52.125,46.075 52.8125,45.8375 53.25,45.4 L53.85,46.2625 C53.2375,46.8375 52.35,47.15 51.4,47.15 Z M53,43.475 C52.9625,42.7625 52.475,41.8875 51.2875,41.8875 C50.175,41.8875 49.65,42.75 49.6,43.475 L53,43.475 Z M61.125,47 L59.8125,47 L59.8125,46.175 C59.35,46.775 58.6625,47.15 57.875,47.15 C56.3375,47.15 55.2,45.975 55.2,43.975 C55.2,42.025 56.325,40.8125 57.875,40.8125 C58.6375,40.8125 59.3375,41.15 59.8125,41.8 L59.8125,38.6625 L61.125,38.6625 L61.125,47 Z M58.2625,45.9875 C58.875,45.9875 59.525,45.625 59.8125,45.175 L59.8125,42.7875 C59.525,42.3375 58.875,41.975 58.2625,41.975 C57.2125,41.975 56.55,42.8125 56.55,43.975 C56.55,45.15 57.2125,45.9875 58.2625,45.9875 Z M63.4875,40.225 C63.0375,40.225 62.675,39.8625 62.675,39.4125 C62.675,38.9625 63.0375,38.6 63.4875,38.6 C63.9375,38.6 64.3,38.9625 64.3,39.4125 C64.3,39.8625 63.9375,40.225 63.4875,40.225 Z M64.1375,47 L62.825,47 L62.825,40.9625 L64.1375,40.9625 L64.1375,47 Z M67.6625,47.15 C66.6375,47.15 66.1125,46.6 66.1125,45.5875 L66.1125,42.1 L65.1125,42.1 L65.1125,40.9625 L66.1125,40.9625 L66.1125,39.3125 L67.425,39.3125 L67.425,40.9625 L68.65,40.9625 L68.65,42.1 L67.425,42.1 L67.425,45.2625 C67.425,45.675 67.625,45.9875 68,45.9875 C68.25,45.9875 68.475,45.875 68.575,45.7625 L68.8875,46.7625 C68.65,46.975 68.2625,47.15 67.6625,47.15 Z" id="B2B-Credit" fill="#FFFFFF"></path>
    </g>
</svg>