<?xml version="1.0" encoding="UTF-8"?>
<svg width="379px" height="54px" viewBox="0 0 379 54" version="1.1" xmlns="http://www.w3.org/2000/svg" xmlns:xlink="http://www.w3.org/1999/xlink">
    <!-- Generator: Sketch 51.3 (57544) - http://www.bohemiancoding.com/sketch -->
    <title>ck-white</title>
    <desc>Created with Sketch.</desc>
    <defs></defs>
    <g id="ck-white" stroke="none" stroke-width="1" fill="none" fill-rule="evenodd">
        <g id="Group-2" fill="#FFFFFF">
            <g id="Group">
                <path d="M23.9831515,26.0004906 L23.9831515,13.6636981 L36.1180409,13.6636981 C36.1180409,20.4772075 30.6848175,26.0004906 23.9831515,26.0004906 L23.9831515,26.0004906 Z M23.9831515,40.3363019 L23.9831515,27.9995094 C30.6848175,27.9995094 36.1180409,33.5227925 36.1180409,40.3363019 L23.9831515,40.3363019 Z M22.0168485,26.0004906 L9.88195907,26.0004906 C9.88195907,19.1873208 15.3148484,13.6636981 22.0168485,13.6636981 L22.0168485,26.0004906 Z M22.0168485,40.3363019 C15.3148484,40.3363019 9.88195907,34.8130189 9.88195907,27.9995094 L22.0168485,27.9995094 L22.0168485,40.3363019 Z M41.8111665,11.0414717 L23,0 L4.18883353,11.0414717 C1.59682784,12.5626415 0,15.3743774 0,18.4173962 L0,35.5826038 C0,38.6256226 1.59682784,41.4373585 4.18883353,42.9588679 L23,54 L41.8111665,42.9588679 C44.4031722,41.4373585 46,38.6256226 46,35.5826038 L46,18.4173962 C46,15.3743774 44.4031722,12.5626415 41.8111665,11.0414717 L41.8111665,11.0414717 Z" id="Fill-1"></path>
            </g>
            <path d="M80.64,47.72 C69.12,47.72 60.06,39.32 60.06,27.02 C60.06,14.72 69.12,6.32 80.64,6.32 C87.72,6.32 92.64,9.68 95.82,14.24 L91.68,16.58 C89.4,13.16 85.2,10.76 80.64,10.76 C71.88,10.76 65.22,17.42 65.22,27.02 C65.22,36.5 71.88,43.28 80.64,43.28 C85.2,43.28 89.4,40.82 91.68,37.46 L95.88,39.74 C92.52,44.36 87.72,47.72 80.64,47.72 Z M131.28,47 L125.4,47 L115.26,31.1 L107.22,31.1 L107.22,47 L102.24,47 L102.24,6.98 L118.32,6.98 C125.64,6.98 130.92,11.66 130.92,19.04 C130.92,26.24 125.94,30.2 120.48,30.68 L131.28,47 Z M117.72,26.72 C122.46,26.72 125.76,23.54 125.76,19.04 C125.76,14.48 122.46,11.42 117.72,11.42 L107.22,11.42 L107.22,26.72 L117.72,26.72 Z M165,47 L138.78,47 L138.78,6.98 L165,6.98 L165,11.42 L143.76,11.42 L143.76,24.32 L164.58,24.32 L164.58,28.76 L143.76,28.76 L143.76,42.56 L165,42.56 L165,47 Z M186.6,47 L172.92,47 L172.92,6.98 L186.6,6.98 C199.08,6.98 207.12,15.68 207.12,27.02 C207.12,38.42 199.08,47 186.6,47 Z M186.6,42.56 C196.32,42.56 201.96,35.6 201.96,27.02 C201.96,18.38 196.5,11.42 186.6,11.42 L177.9,11.42 L177.9,42.56 L186.6,42.56 Z M219.9,47 L214.92,47 L214.92,6.98 L219.9,6.98 L219.9,47 Z M244.14,47 L239.16,47 L239.16,11.42 L226.5,11.42 L226.5,6.98 L256.86,6.98 L256.86,11.42 L244.14,11.42 L244.14,47 Z M306.42,47 L300.18,47 L285,29 L280.98,33.56 L280.98,47 L276,47 L276,6.98 L280.98,6.98 L280.98,27.62 L298.68,6.98 L304.92,6.98 L288.24,25.94 L306.42,47 Z M338.28,47 L312.06,47 L312.06,6.98 L338.28,6.98 L338.28,11.42 L317.04,11.42 L317.04,24.32 L337.86,24.32 L337.86,28.76 L317.04,28.76 L317.04,42.56 L338.28,42.56 L338.28,47 Z M362.82,47 L357.84,47 L357.84,30.08 L342.06,6.98 L347.88,6.98 L360.3,25.58 L372.72,6.98 L378.54,6.98 L362.82,30.08 L362.82,47 Z" id="CREDIT-KEY"></path>
        </g>
    </g>
</svg>