<?xml version="1.0" encoding="UTF-8"?>
<svg xmlns="http://www.w3.org/2000/svg" xmlns:xlink="http://www.w3.org/1999/xlink" width="98pt" height="14pt" viewBox="0 0 98 14" version="1.1">
<g id="surface1">
<path style=" stroke:none;fill-rule:evenodd;fill:rgb(23.921569%,61.176471%,89.803922%);fill-opacity:1;" d="M 6.203125 6.742188 L 6.203125 3.542969 L 9.339844 3.542969 C 9.339844 5.308594 7.933594 6.742188 6.203125 6.742188 Z M 6.203125 10.457031 L 6.203125 7.257812 C 7.933594 7.257812 9.339844 8.691406 9.339844 10.457031 Z M 5.691406 6.742188 L 2.554688 6.742188 C 2.554688 4.972656 3.960938 3.542969 5.691406 3.542969 Z M 5.691406 10.457031 C 3.960938 10.457031 2.554688 9.027344 2.554688 7.257812 L 5.691406 7.257812 Z M 10.8125 2.863281 L 5.945312 0 L 1.082031 2.863281 C 0.414062 3.257812 0 3.984375 0 4.773438 L 0 9.226562 C 0 10.015625 0.414062 10.742188 1.082031 11.136719 L 5.945312 14 L 10.8125 11.136719 C 11.480469 10.742188 11.894531 10.015625 11.894531 9.226562 L 11.894531 4.773438 C 11.894531 3.984375 11.480469 3.257812 10.8125 2.863281 Z M 10.8125 2.863281 "/>
<path style=" stroke:none;fill-rule:evenodd;fill:rgb(16.078431%,20.784314%,25.098039%);fill-opacity:1;" d="M 20.851562 12.371094 C 17.871094 12.371094 15.53125 10.195312 15.53125 7.003906 C 15.53125 3.816406 17.871094 1.636719 20.851562 1.636719 C 22.683594 1.636719 23.953125 2.507812 24.777344 3.691406 L 23.707031 4.296875 C 23.117188 3.410156 22.03125 2.789062 20.851562 2.789062 C 18.585938 2.789062 16.863281 4.515625 16.863281 7.003906 C 16.863281 9.464844 18.585938 11.222656 20.851562 11.222656 C 22.03125 11.222656 23.117188 10.582031 23.707031 9.710938 L 24.792969 10.304688 C 23.921875 11.5 22.683594 12.371094 20.851562 12.371094 Z M 33.945312 12.183594 L 32.425781 12.183594 L 29.804688 8.0625 L 27.722656 8.0625 L 27.722656 12.183594 L 26.4375 12.183594 L 26.4375 1.808594 L 30.59375 1.808594 C 32.488281 1.808594 33.851562 3.023438 33.851562 4.9375 C 33.851562 6.804688 32.566406 7.828125 31.152344 7.953125 Z M 30.441406 6.925781 C 31.664062 6.925781 32.519531 6.101562 32.519531 4.9375 C 32.519531 3.753906 31.664062 2.960938 30.441406 2.960938 L 27.722656 2.960938 L 27.722656 6.925781 Z M 42.664062 12.183594 L 35.886719 12.183594 L 35.886719 1.808594 L 42.664062 1.808594 L 42.664062 2.960938 L 37.171875 2.960938 L 37.171875 6.304688 L 42.554688 6.304688 L 42.554688 7.457031 L 37.171875 7.457031 L 37.171875 11.035156 L 42.664062 11.035156 Z M 48.25 12.183594 L 44.710938 12.183594 L 44.710938 1.808594 L 48.25 1.808594 C 51.476562 1.808594 53.554688 4.066406 53.554688 7.003906 C 53.554688 9.960938 51.476562 12.183594 48.25 12.183594 Z M 48.25 11.035156 C 50.761719 11.035156 52.222656 9.230469 52.222656 7.003906 C 52.222656 4.765625 50.808594 2.960938 48.25 2.960938 L 46 2.960938 L 46 11.035156 Z M 56.859375 12.183594 L 55.574219 12.183594 L 55.574219 1.808594 L 56.859375 1.808594 Z M 63.128906 12.183594 L 61.839844 12.183594 L 61.839844 2.960938 L 58.566406 2.960938 L 58.566406 1.808594 L 66.417969 1.808594 L 66.417969 2.960938 L 63.128906 2.960938 Z M 79.234375 12.183594 L 77.617188 12.183594 L 73.695312 7.519531 L 72.65625 8.699219 L 72.65625 12.183594 L 71.367188 12.183594 L 71.367188 1.808594 L 72.65625 1.808594 L 72.65625 7.160156 L 77.230469 1.808594 L 78.84375 1.808594 L 74.53125 6.726562 Z M 87.472656 12.183594 L 80.691406 12.183594 L 80.691406 1.808594 L 87.472656 1.808594 L 87.472656 2.960938 L 81.980469 2.960938 L 81.980469 6.304688 L 87.363281 6.304688 L 87.363281 7.457031 L 81.980469 7.457031 L 81.980469 11.035156 L 87.472656 11.035156 Z M 93.816406 12.183594 L 92.527344 12.183594 L 92.527344 7.796875 L 88.449219 1.808594 L 89.953125 1.808594 L 93.164062 6.632812 L 96.375 1.808594 L 97.882812 1.808594 L 93.816406 7.796875 Z M 93.816406 12.183594 "/>
</g>
</svg>
